TITLE ""
FILE "1Q_t_1379-1388.mp3" MP3
  TRACK 01 AUDIO
    TITLE "1Q_t_1379-1388_01"
    INDEX 01 00:00:00
  TRACK 02 AUDIO
    TITLE "1Q_t_1379-1388_02"
    INDEX 01 00:00:20
  TRACK 03 AUDIO
    TITLE "1Q_t_1379-1388_03"
    INDEX 01 00:01:45
  TRACK 04 AUDIO
    TITLE "1Q_t_1379-1388_04"
    INDEX 01 00:02:15
  TRACK 05 AUDIO
    TITLE "1Q_t_1379-1388_05"
    INDEX 01 00:03:16
  TRACK 06 AUDIO
    TITLE "1Q_t_1379-1388_06"
    INDEX 01 00:03:24
  TRACK 07 AUDIO
    TITLE "1Q_t_1379-1388_07"
    INDEX 01 00:06:32
  TRACK 08 AUDIO
    TITLE "1Q_t_1379-1388_08"
    INDEX 01 00:06:38
  TRACK 09 AUDIO
    TITLE "1Q_t_1379-1388_09"
    INDEX 01 00:11:71
  TRACK 10 AUDIO
    TITLE "1Q_t_1379-1388_10"
    INDEX 01 00:12:41
  TRACK 11 AUDIO
    TITLE "1Q_t_1379-1388_11"
    INDEX 01 00:13:62
  TRACK 12 AUDIO
    TITLE "1Q_t_1379-1388_12"
    INDEX 01 00:13:72
  TRACK 13 AUDIO
    TITLE "1Q_t_1379-1388_13"
    INDEX 01 00:16:45
  TRACK 14 AUDIO
    TITLE "1Q_t_1379-1388_14"
    INDEX 01 00:16:50
  TRACK 15 AUDIO
    TITLE "1Q_t_1379-1388_15"
    INDEX 01 00:23:25
  TRACK 16 AUDIO
    TITLE "1Q_t_1379-1388_16"
    INDEX 01 00:23:70
  TRACK 17 AUDIO
    TITLE "1Q_t_1379-1388_17"
    INDEX 01 00:25:16
  TRACK 18 AUDIO
    TITLE "1Q_t_1379-1388_18"
    INDEX 01 00:25:24
  TRACK 19 AUDIO
    TITLE "1Q_t_1379-1388_19"
    INDEX 01 00:27:64
  TRACK 20 AUDIO
    TITLE "1Q_t_1379-1388_20"
    INDEX 01 00:27:70
  TRACK 21 AUDIO
    TITLE "1Q_t_1379-1388_21"
    INDEX 01 00:33:06
  TRACK 22 AUDIO
    TITLE "1Q_t_1379-1388_22"
    INDEX 01 00:33:53
  TRACK 23 AUDIO
    TITLE "1Q_t_1379-1388_23"
    INDEX 01 00:35:11
  TRACK 24 AUDIO
    TITLE "1Q_t_1379-1388_24"
    INDEX 01 00:35:20
  TRACK 25 AUDIO
    TITLE "1Q_t_1379-1388_25"
    INDEX 01 00:37:53
  TRACK 26 AUDIO
    TITLE "1Q_t_1379-1388_26"
    INDEX 01 00:37:60
  TRACK 27 AUDIO
    TITLE "1Q_t_1379-1388_27"
    INDEX 01 00:45:17
  TRACK 28 AUDIO
    TITLE "1Q_t_1379-1388_28"
    INDEX 01 00:45:64
  TRACK 29 AUDIO
    TITLE "1Q_t_1379-1388_29"
    INDEX 01 00:47:08
  TRACK 30 AUDIO
    TITLE "1Q_t_1379-1388_30"
    INDEX 01 00:47:16
  TRACK 31 AUDIO
    TITLE "1Q_t_1379-1388_31"
    INDEX 01 00:48:58
  TRACK 32 AUDIO
    TITLE "1Q_t_1379-1388_32"
    INDEX 01 00:48:64
  TRACK 33 AUDIO
    TITLE "1Q_t_1379-1388_33"
    INDEX 01 00:55:51
  TRACK 34 AUDIO
    TITLE "1Q_t_1379-1388_34"
    INDEX 01 00:56:21
  TRACK 35 AUDIO
    TITLE "1Q_t_1379-1388_35"
    INDEX 01 00:57:16
  TRACK 36 AUDIO
    TITLE "1Q_t_1379-1388_36"
    INDEX 01 00:57:22
  TRACK 37 AUDIO
    TITLE "1Q_t_1379-1388_37"
    INDEX 01 00:58:21
  TRACK 38 AUDIO
    TITLE "1Q_t_1379-1388_38"
    INDEX 01 00:58:27
  TRACK 39 AUDIO
    TITLE "1Q_t_1379-1388_39"
    INDEX 01 01:02:51
  TRACK 40 AUDIO
    TITLE "1Q_t_1379-1388_40"
    INDEX 01 01:03:23
  TRACK 41 AUDIO
    TITLE "1Q_t_1379-1388_41"
    INDEX 01 01:04:49
  TRACK 42 AUDIO
    TITLE "1Q_t_1379-1388_42"
    INDEX 01 01:04:55
  TRACK 43 AUDIO
    TITLE "1Q_t_1379-1388_43"
    INDEX 01 01:07:46
  TRACK 44 AUDIO
    TITLE "1Q_t_1379-1388_44"
    INDEX 01 01:07:52
  TRACK 45 AUDIO
    TITLE "1Q_t_1379-1388_45"
    INDEX 01 01:12:41
  TRACK 46 AUDIO
    TITLE "1Q_t_1379-1388_46"
    INDEX 01 01:13:13
  TRACK 47 AUDIO
    TITLE "1Q_t_1379-1388_47"
    INDEX 01 01:14:20
  TRACK 48 AUDIO
    TITLE "1Q_t_1379-1388_48"
    INDEX 01 01:14:30
  TRACK 49 AUDIO
    TITLE "1Q_t_1379-1388_49"
    INDEX 01 01:19:02
  TRACK 50 AUDIO
    TITLE "1Q_t_1379-1388_50"
    INDEX 01 01:19:08
  TRACK 51 AUDIO
    TITLE "1Q_t_1379-1388_51"
    INDEX 01 01:25:38
  TRACK 52 AUDIO
    TITLE "1Q_t_1379-1388_52"
    INDEX 01 01:26:08
  TRACK 53 AUDIO
    TITLE "1Q_t_1379-1388_53"
    INDEX 01 01:27:25
  TRACK 54 AUDIO
    TITLE "1Q_t_1379-1388_54"
    INDEX 01 01:27:35
  TRACK 55 AUDIO
    TITLE "1Q_t_1379-1388_55"
    INDEX 01 01:30:08
  TRACK 56 AUDIO
    TITLE "1Q_t_1379-1388_56"
    INDEX 01 01:30:14
  TRACK 57 AUDIO
    TITLE "1Q_t_1379-1388_57"
    INDEX 01 01:35:72
  TRACK 58 AUDIO
    TITLE "1Q_t_1379-1388_58"
    INDEX 01 01:36:42
  TRACK 59 AUDIO
    TITLE "1Q_t_1379-1388_59"
    INDEX 01 01:37:59
  TRACK 60 AUDIO
    TITLE "1Q_t_1379-1388_60"
    INDEX 01 01:37:69
  TRACK 61 AUDIO
    TITLE "1Q_t_1379-1388_61"
    INDEX 01 01:40:37
  TRACK 62 AUDIO
    TITLE "1Q_t_1379-1388_62"
    INDEX 01 01:40:43
  TRACK 63 AUDIO
    TITLE "1Q_t_1379-1388_63"
    INDEX 01 01:46:20
